<?xml version="1.0" encoding="iso-8859-1"?>

<!DOCTYPE svg PUBLIC "-//W3C//DTD SVG 1.1//EN" "http://www.w3.org/Graphics/SVG/1.1/DTD/svg11.dtd">
<!-- Uploaded to: SVG Repo, www.svgrepo.com, Generator: SVG Repo Mixer Tools -->
<svg height="800px" width="800px" version="1.1" id="_x36_" xmlns="http://www.w3.org/2000/svg" xmlns:xlink="http://www.w3.org/1999/xlink" 
	 viewBox="0 0 512 512"  xml:space="preserve">
<g>
	<g>
		<path style="fill:#EAEFEE;" d="M256.004,446.038l-106.027-20.029C158.238,454.282,170.002,512,256.004,512
			c85.994,0,97.765-57.718,106.019-85.991L256.004,446.038z"/>
		<path style="fill:#A18968;" d="M418.058,170.02c0,0,10.21-14.69,12.932-70.083c0.206-3.754,0.344-7.716,0.455-11.825
			c1.651-65.164-35.091-98.55-43.463-85.21c-3.115,4.96-14.742,21.908-28.135,41.252c-22.644,32.729-50.42,72.383-50.42,72.383
			h-53.424h-53.439c0,0-27.776-39.654-50.419-72.383c-13.381-19.344-25.019-36.292-28.128-41.252
			c-8.372-13.34-45.114,20.046-43.47,85.21c0.11,4.109,0.249,8.071,0.462,11.825c2.715,55.393,12.925,70.083,12.925,70.083
			s-60.947,81.667-73.526,205.729l1.277-0.093l50.551-3.064l9.422,42.41l48.72-6.272l15.688,31.427l47.124-14.13h64.366h11.412
			h49.832l47.124,14.13l15.688-31.427l48.721,6.272l9.429-42.41l50.55,3.064l1.272,0.093
			C479.012,251.687,418.058,170.02,418.058,170.02z"/>
		<path style="fill:#FEFEFF;" d="M387.215,364.769c-45.231,24.228-121.016,63.106-126.273,65.798l-4.939,0.166l-4.946-0.166
			c-5.264-2.693-81.042-41.57-126.273-65.798c-39.472-21.158-82.244-17.857-105.018,15.6l50.302-3.064l9.38,42.4l48.478-6.265
			l15.605,31.43l22.264-6.707c6.901,16.326,22.34,45.816,90.208,45.816c67.86,0,83.293-29.489,90.194-45.816l22.264,6.707
			l15.604-31.43l48.479,6.265l9.387-42.4l50.302,3.064C469.452,346.912,426.679,343.611,387.215,364.769z"/>
		<path style="fill:#71605B;" d="M284.747,416.176c-6.114,0-28.751,0-28.751,0s-22.644,0-28.743,0
			c-17.144,0-28.149,20.799-14.693,37.93c16.779,21.359,32.426,22.018,43.436,22.018c11.005,0,26.65-0.66,43.429-22.018
			C312.881,436.975,301.885,416.176,284.747,416.176z"/>
		<g>
			<g>
				<path style="fill:#FEFEFF;" d="M351.213,124.892c0,0,19.3-26.537,25.841-34.052c6.535-7.516,16.98-3.115,19.701,7.523
					c4.331,16.883,4.538,37.882-8.772,53.258C384.632,149.949,351.213,124.892,351.213,124.892z"/>
				<path style="fill:#71605B;" d="M359.847,44.154c46.503-27.868,65.92,26.163,71.143,55.783c0.206-3.754,0.344-7.716,0.455-11.825
					c1.651-65.164-35.091-98.55-43.463-85.21C384.867,7.861,373.241,24.809,359.847,44.154z"/>
			</g>
			<path style="fill:#FEFEFF;" d="M160.781,124.892c0,0-19.294-26.537-25.842-34.052c-6.528-7.516-16.966-3.115-19.694,7.523
				c-4.338,16.883-4.538,37.882,8.772,53.258C127.361,149.949,160.781,124.892,160.781,124.892z"/>
			<path style="fill:#71605B;" d="M152.146,44.154C105.644,16.285,86.232,70.316,81.01,99.937
				c-0.213-3.754-0.352-7.716-0.462-11.825c-1.644-65.164,35.098-98.55,43.47-85.21C127.127,7.861,138.765,24.809,152.146,44.154z"
				/>
		</g>
		<g>
			<g>
				<path style="fill:#564236;" d="M160.704,281.793h-24.805l8.02,10.876c-1.037,2.308-1.631,4.832-1.631,7.508
					c0,10.168,8.241,18.417,18.416,18.417c10.154,0,18.402-8.248,18.402-18.417C179.107,290.031,170.858,281.793,160.704,281.793z"
					/>
			</g>
			<g>
				<path style="fill:#564236;" d="M351.288,281.793h24.805l-8.026,10.876c1.05,2.308,1.644,4.832,1.644,7.508
					c0,10.168-8.234,18.417-18.423,18.417c-10.147,0-18.388-8.248-18.388-18.417C332.9,290.031,341.142,281.793,351.288,281.793z"/>
			</g>
		</g>
		<path style="opacity:0.13;fill:#564236;" d="M488.565,375.548l1.747,0.107l1.272,0.093
			c-12.573-124.062-73.526-205.729-73.526-205.729s10.21-14.69,12.932-70.083c0.206-3.754,0.344-7.716,0.455-11.825
			c1.651-65.164-35.091-98.55-43.463-85.21c-3.115,4.96-14.742,21.908-28.135,41.252c-22.644,32.729-50.42,72.383-50.42,72.383
			h-53.424h-3.026v395.357c1.036,0.017,1.968,0.107,3.026,0.107c72.178,0,92.059-40.659,101.467-70.442l10.991,3.312l15.604-31.43
			l48.479,6.265l9.387-42.4l50.302,3.064C491.066,378.664,489.829,377.096,488.565,375.548z"/>
	</g>
	<g>
		<g>
			<path style="fill:#C0B495;" d="M192.259,434.668H93.41c-1.617,0-2.915,1.303-2.915,2.919c0,1.613,1.298,2.922,2.915,2.922h98.849
				c1.609,0,2.915-1.309,2.915-2.922C195.174,435.97,193.868,434.668,192.259,434.668"/>
			<path style="fill:#C0B495;" d="M192.127,420.061l-85.04-32.494c-1.499-0.573-3.184,0.18-3.765,1.693
				c-0.573,1.506,0.18,3.191,1.686,3.768l85.027,32.494c1.507,0.57,3.206-0.18,3.78-1.692
				C194.386,422.324,193.633,420.638,192.127,420.061"/>
			<path style="fill:#C0B495;" d="M191.61,448.114l-81.892,39.723c-1.451,0.701-2.065,2.452-1.36,3.902
				c0.706,1.451,2.452,2.058,3.91,1.351l81.891-39.723c1.451-0.701,2.066-2.445,1.361-3.904
				C194.807,448.014,193.06,447.409,191.61,448.114"/>
		</g>
		<g>
			<path style="fill:#C0B495;" d="M319.755,434.668h98.834c1.617,0,2.922,1.303,2.922,2.919c0,1.613-1.305,2.922-2.922,2.922
				h-98.834c-1.624,0-2.93-1.309-2.93-2.922C316.826,435.97,318.131,434.668,319.755,434.668"/>
			<path style="fill:#C0B495;" d="M319.872,420.061l85.04-32.494c1.506-0.573,3.192,0.18,3.765,1.693
				c0.58,1.506-0.173,3.191-1.672,3.768l-85.04,32.494c-1.506,0.57-3.199-0.18-3.779-1.692
				C317.614,422.324,318.366,420.638,319.872,420.061"/>
			<path style="fill:#C0B495;" d="M320.39,448.114l81.892,39.723c1.457,0.701,2.065,2.452,1.361,3.902
				c-0.705,1.451-2.452,2.058-3.904,1.351l-81.898-39.723c-1.45-0.701-2.058-2.445-1.354-3.904
				C317.192,448.014,318.94,447.409,320.39,448.114"/>
		</g>
	</g>
</g>
</svg>