<!DOCTYPE svg PUBLIC "-//W3C//DTD SVG 1.1//EN" "http://www.w3.org/Graphics/SVG/1.1/DTD/svg11.dtd">

<!-- Uploaded to: SVG Repo, www.svgrepo.com, Transformed by: SVG Repo Mixer Tools -->
<svg width="800px" height="800px" viewBox="-2.4 -2.4 28.80 28.80" fill="none" xmlns="http://www.w3.org/2000/svg" stroke="#000000">

<g id="SVGRepo_bgCarrier" stroke-width="0">

<path transform="translate(-2.4, -2.4), scale(0.8999999999999999)" d="M16,31.168344925556866C18.38334058969985,31.380415932572536,20.59145264609052,29.837631521514044,22.51721696631183,28.417519462030704C24.296465619113295,27.10545212225754,25.376013240107497,25.157987958871686,26.6244866187015,23.333553609398585C27.86851003966122,21.515622126306845,29.595981153826802,19.86986179455379,29.862758158522656,17.683243588538396C30.129562005413526,15.49640537243489,28.604191307327103,13.558701513332725,28.078066353549357,11.419393632465903C27.4750921188996,8.96760433244577,28.34370625605731,5.870914200328506,26.526606131936738,4.117917954392512C24.725795107347615,2.3806361591624876,21.727861874974373,3.0690364395607044,19.232370511269746,2.8857573191050463C17.068988304494447,2.726869657206438,14.9619822019786,2.749043834189255,12.823267238877994,3.1114885448764706C10.557991891899253,3.495381247704103,8.227351816936183,3.7924531514868516,6.320352794766814,5.073936953319334C4.303993039327157,6.428910047287358,2.576661171339138,8.311036761665708,1.7090224875074913,10.580147129861324C0.8406215597525335,12.851250972554686,1.049739071067459,15.369274352929768,1.4678599297222927,17.764521267796788C1.8731871481868592,20.086478542691665,2.5127576515329926,22.469320128426933,4.090166052364692,24.220764811381848C5.612548224008372,25.91111219291273,8.09938916161508,26.163204864267765,10.064339941548974,27.30945535138828C12.13283093369801,28.51610583422378,13.614709111004789,30.956100379795902,16,31.168344925556866" fill="#ffffff" strokewidth="0"/>

</g>

<g id="SVGRepo_tracerCarrier" stroke-linecap="round" stroke-linejoin="round"/>

<g id="SVGRepo_iconCarrier"> <path d="M11.7769 10L16.6065 11.2941" stroke="#000000" stroke-width="1.5" stroke-linecap="round"/> <path d="M11 12.8975L13.8978 13.6739" stroke="#000000" stroke-width="1.5" stroke-linecap="round"/> <path d="M20.3116 12.6473C19.7074 14.9024 19.4052 16.0299 18.7203 16.7612C18.1795 17.3386 17.4796 17.7427 16.7092 17.9223C16.6129 17.9448 16.5152 17.9621 16.415 17.9744C15.4999 18.0873 14.3834 17.7881 12.3508 17.2435C10.0957 16.6392 8.96815 16.3371 8.23687 15.6522C7.65945 15.1114 7.25537 14.4115 7.07573 13.641C6.84821 12.6652 7.15033 11.5377 7.75458 9.28263L8.27222 7.35077C8.35912 7.02646 8.43977 6.72546 8.51621 6.44561C8.97128 4.77957 9.27709 3.86298 9.86351 3.23687C10.4043 2.65945 11.1042 2.25537 11.8747 2.07573C12.8504 1.84821 13.978 2.15033 16.2331 2.75458C18.4881 3.35883 19.6157 3.66095 20.347 4.34587C20.9244 4.88668 21.3285 5.58657 21.5081 6.35703C21.669 7.04708 21.565 7.81304 21.2766 9" stroke="#000000" stroke-width="1.5" stroke-linecap="round"/> <path d="M3.27222 16.647C3.87647 18.9021 4.17859 20.0296 4.86351 20.7609C5.40432 21.3383 6.10421 21.7424 6.87466 21.922C7.85044 22.1495 8.97798 21.8474 11.2331 21.2432C13.4881 20.6389 14.6157 20.3368 15.347 19.6519C15.8399 19.1902 16.2065 18.6126 16.415 17.9741M8.51621 6.44531C8.16368 6.53646 7.77741 6.63996 7.35077 6.75428C5.09569 7.35853 3.96815 7.66065 3.23687 8.34557C2.65945 8.88638 2.25537 9.58627 2.07573 10.3567C1.91482 11.0468 2.01883 11.8129 2.30728 13" stroke="#000000" stroke-width="1.5" stroke-linecap="round" stroke-linejoin="round"/> </g>

</svg>